# xmcd
#
# Track frame offsets: 
#        150
#        10728
#        25851
#        41772
#        51778
#        70719
#        80396
#        91921
#        102494
#        117984
#        134617
#        146738
#        156749
#        166523
#        176457
#
# Disc length: 2586 seconds
#
# Revision: 2
# Processed by: cddbd v1.5.2PL0 Copyright (c) Steve Scherf et al.
# Submitted via: ExactAudioCopy v1.0b1
#
DISCID=c50a180f
DTITLE=Heureka - Ejhle, Heureka
DYEAR=1984
DGENRE=Folk
TTITLE0=Pisen o zavojence olovove
TTITLE1=Toinella
TTITLE2=Jednou...
TTITLE3=Reva zelena
TTITLE4=Bojovnice
TTITLE5=Vozil sedlak hnuj
TTITLE6=Stoupa ricni proud
TTITLE7=Uz tahnou od more capi
TTITLE8=Cesta do Landry
TTITLE9=Zvedni vys svou tvar
TTITLE10=Zpivej o vine
TTITLE11=Bodaj sa prepadla ta straznicka brana
TTITLE12=Aj pojedzemy my
TTITLE13=Mladenci neverni
TTITLE14=Mazani namornici
EXTD=
EXTT0=
EXTT1=
EXTT2=
EXTT3=
EXTT4=
EXTT5=
EXTT6=
EXTT7=
EXTT8=
EXTT9=
EXTT10=
EXTT11=
EXTT12=
EXTT13=
EXTT14=
PLAYORDER=
